<svg width="798" height="816" viewBox="0 0 797.992 816.2" fill="none" xmlns="http://www.w3.org/2000/svg">
<rect x="416.985" y="159.491" width="350" height="173" fill="#B42B18"/>
<rect x="447.992" y="425.878" width="350" height="173" transform="matrix(0.299943, 0.953957, -0.953957, 0.299943, 924.917213, -235.613968)" fill="#B42B18"/>
<rect x="198.742" y="556.845" width="350" height="173" transform="matrix(-0.808936, 0.587896, -0.587896, -0.808936, 1054.296614, 944.049244)" fill="#B42B18"/>
<rect x="17.294" y="362.809" width="350" height="173" transform="matrix(-0.806766, -0.590871, 0.590871, -0.806766, 81.947426, 925.417333)" fill="#B42B18"/>
<rect x="140.776" y="106.754" width="350" height="173" transform="matrix(0.312060, -0.950063, 0.950063, 0.312060, 33.631540, 432.954174)" fill="#B42B18"/>
<path d="M416.985,159.491L475.763,328.589L654.749,332.237L512.091,440.392L563.931,611.745L416.985,509.491L270.039,611.745L321.88,440.392L179.221,332.237L358.206,328.589Z" fill="white"/>
</svg>
