<svg width="1463" height="501" viewBox="0 0 1463 501" fill="none" xmlns="http://www.w3.org/2000/svg">
<path d="M250.5 500.5C388.571 500.5 500.5 388.571 500.5 250.5C500.5 112.429 388.571 0.5 250.5 0.5C112.429 0.5 0.5 112.429 0.5 250.5H0.500793L245.915 500.459C247.44 500.486 248.968 500.5 250.5 500.5Z" fill="black"/>
<path d="M628.76 320.66C595.46 320.66 573.5 298.34 573.5 255.68C573.5 213.02 595.46 190.7 628.76 190.7C662.06 190.7 684.02 213.02 684.02 255.68C684.02 298.34 662.06 320.66 628.76 320.66ZM628.76 296.36C645.14 296.36 655.04 285.02 655.04 265.04V246.32C655.04 226.34 645.14 215 628.76 215C612.38 215 602.48 226.34 602.48 246.32V265.04C602.48 285.02 612.38 296.36 628.76 296.36ZM724.856 318.5V192.86H785.876C806.576 192.86 818.996 205.64 818.996 225.08C818.996 244.34 808.376 251.54 795.596 252.08V253.16C807.476 253.16 823.856 261.08 823.856 282.68C823.856 302.48 809.996 318.5 791.456 318.5H724.856ZM752.216 266.66V295.46H783.716C790.916 295.46 795.416 291.32 795.416 284.12V278C795.416 270.8 790.916 266.66 783.716 266.66H752.216ZM752.216 215.9V244.34H779.396C786.596 244.34 790.916 240.02 790.916 232.82V227.42C790.916 220.22 786.596 215.9 779.396 215.9H752.216ZM869.257 192.86H934.777V282.14C934.777 305.18 919.297 320.48 893.377 320.48C868.537 320.48 855.397 306.26 851.797 285.2L877.357 280.16C879.337 290.78 884.557 296.54 893.017 296.54C900.937 296.54 907.417 291.68 907.417 280.88V214.82H869.257V192.86ZM1065.2 318.5H979.704V192.86H1065.2V217.16H1007.06V242.9H1056.92V267.02H1007.06V294.2H1065.2V318.5ZM1157.8 320.66C1123.96 320.66 1102.18 299.06 1102.18 256.58C1102.18 214.1 1123.96 190.7 1157.8 190.7C1180.84 190.7 1195.6 200.06 1204.78 220.22L1181.2 232.46C1177.96 222.02 1171.3 215 1157.8 215C1141.78 215 1131.16 225.8 1131.16 245.6V265.76C1131.16 285.56 1141.78 296.36 1157.8 296.36C1171.3 296.36 1179.04 287.9 1182.82 277.64L1205.14 290.6C1195.78 309.68 1180.84 320.66 1157.8 320.66ZM1328.69 217.16H1294.67V318.5H1267.31V217.16H1233.29V192.86H1328.69V217.16ZM1403.97 320.66C1382.01 320.66 1367.07 312.2 1356.27 300.32L1374.27 282.14C1382.73 291.68 1393.53 296.54 1405.77 296.54C1419.09 296.54 1425.57 290.6 1425.57 281.42C1425.57 274.58 1422.69 269.54 1410.99 267.92L1398.57 266.3C1372.11 262.88 1360.05 249.92 1360.05 228.86C1360.05 206.36 1377.69 190.7 1407.21 190.7C1426.11 190.7 1440.51 197 1450.77 208.34L1432.59 226.7C1426.65 219.68 1418.55 214.82 1405.59 214.82C1393.35 214.82 1387.41 219.5 1387.41 227.06C1387.41 235.7 1391.91 238.94 1402.35 240.56L1414.77 242.54C1440.51 246.68 1452.93 258.2 1452.93 279.8C1452.93 303.92 1435.29 320.66 1403.97 320.66Z" fill="black"/>
</svg>
