<svg width="1462" height="500" viewBox="0 0 1462 500" fill="none" xmlns="http://www.w3.org/2000/svg">
<path d="M250 500C388.071 500 500 388.071 500 250C500 111.929 388.071 0 250 0C111.929 0 0 111.929 0 250H0.000793457L245.415 499.959C246.94 499.986 248.468 500 250 500Z" fill="white"/>
<path d="M628.26 320.16C594.96 320.16 573 297.84 573 255.18C573 212.52 594.96 190.2 628.26 190.2C661.56 190.2 683.52 212.52 683.52 255.18C683.52 297.84 661.56 320.16 628.26 320.16ZM628.26 295.86C644.64 295.86 654.54 284.52 654.54 264.54V245.82C654.54 225.84 644.64 214.5 628.26 214.5C611.88 214.5 601.98 225.84 601.98 245.82V264.54C601.98 284.52 611.88 295.86 628.26 295.86ZM724.356 318V192.36H785.376C806.076 192.36 818.496 205.14 818.496 224.58C818.496 243.84 807.876 251.04 795.096 251.58V252.66C806.976 252.66 823.356 260.58 823.356 282.18C823.356 301.98 809.496 318 790.956 318H724.356ZM751.716 266.16V294.96H783.216C790.416 294.96 794.916 290.82 794.916 283.62V277.5C794.916 270.3 790.416 266.16 783.216 266.16H751.716ZM751.716 215.4V243.84H778.896C786.096 243.84 790.416 239.52 790.416 232.32V226.92C790.416 219.72 786.096 215.4 778.896 215.4H751.716ZM868.757 192.36H934.277V281.64C934.277 304.68 918.797 319.98 892.877 319.98C868.037 319.98 854.897 305.76 851.297 284.7L876.857 279.66C878.837 290.28 884.057 296.04 892.517 296.04C900.437 296.04 906.917 291.18 906.917 280.38V214.32H868.757V192.36ZM1064.7 318H979.204V192.36H1064.7V216.66H1006.56V242.4H1056.42V266.52H1006.56V293.7H1064.7V318ZM1157.3 320.16C1123.46 320.16 1101.68 298.56 1101.68 256.08C1101.68 213.6 1123.46 190.2 1157.3 190.2C1180.34 190.2 1195.1 199.56 1204.28 219.72L1180.7 231.96C1177.46 221.52 1170.8 214.5 1157.3 214.5C1141.28 214.5 1130.66 225.3 1130.66 245.1V265.26C1130.66 285.06 1141.28 295.86 1157.3 295.86C1170.8 295.86 1178.54 287.4 1182.32 277.14L1204.64 290.1C1195.28 309.18 1180.34 320.16 1157.3 320.16ZM1328.19 216.66H1294.17V318H1266.81V216.66H1232.79V192.36H1328.19V216.66ZM1403.47 320.16C1381.51 320.16 1366.57 311.7 1355.77 299.82L1373.77 281.64C1382.23 291.18 1393.03 296.04 1405.27 296.04C1418.59 296.04 1425.07 290.1 1425.07 280.92C1425.07 274.08 1422.19 269.04 1410.49 267.42L1398.07 265.8C1371.61 262.38 1359.55 249.42 1359.55 228.36C1359.55 205.86 1377.19 190.2 1406.71 190.2C1425.61 190.2 1440.01 196.5 1450.27 207.84L1432.09 226.2C1426.15 219.18 1418.05 214.32 1405.09 214.32C1392.85 214.32 1386.91 219 1386.91 226.56C1386.91 235.2 1391.41 238.44 1401.85 240.06L1414.27 242.04C1440.01 246.18 1452.43 257.7 1452.43 279.3C1452.43 303.42 1434.79 320.16 1403.47 320.16Z" fill="white"/>
</svg>
