<svg width="1463" height="320" viewBox="0 0 3640 797" fill="none" xmlns="http://www.w3.org/2000/svg">
<path d="M622.559,301.514c-0,87.89 -32.552,166.015 -86.67,220.54c-54.118,54.525 -135.091,87.891 -226.644,87.891c-59.001,-0 -111.898,-12.614 -158.692,-37.435c-46.793,-24.821 -83.821,-60.628 -110.27,-106.608c-26.855,-45.98 -40.283,-98.877 -40.283,-157.878c0,-58.594 13.021,-111.491 39.469,-158.284c26.042,-46.794 63.07,-83.415 110.677,-109.864c47.608,-26.448 102.133,-39.876 163.168,-39.876c59,-0 111.898,12.614 158.691,37.435c46.794,24.821 83.415,60.221 110.27,106.201c26.856,45.98 40.284,98.877 40.284,157.878Zm-118.409,22.379c0,-77.311 -19.124,-139.567 -56.966,-187.174c-37.842,-47.608 -88.297,-71.208 -151.367,-71.208c-56.559,0 -100.098,19.531 -131.022,58.187c-30.925,39.062 -46.387,93.18 -46.387,161.947c0,77.311 19.125,139.567 56.966,187.174c37.842,47.607 88.298,71.208 151.368,71.208c56.559,-0 100.097,-19.532 131.022,-58.594c30.924,-38.656 46.386,-92.773 46.386,-161.54Zm530.664,-60.628c26.856,4.476 68.767,24.007 99.284,59.814c19.125,23.194 33.773,59.408 33.773,98.47c0,55.746 -25.228,110.271 -81.38,146.485c-36.621,23.6 -93.587,38.655 -161.947,38.655c-36.621,0 -100.097,-3.255 -190.023,-10.172l0,-6.51c13.021,-12.208 19.532,-27.263 19.532,-45.167l-0,-480.143c-0,-17.496 -6.511,-32.552 -19.532,-44.759l0,-6.917c80.16,-6.511 137.533,-9.766 172.527,-9.766c34.993,0 65.511,3.662 91.959,10.58c26.042,7.324 46.794,17.496 62.256,30.517c30.518,26.042 45.166,58.594 45.166,98.063c0,53.711 -26.449,97.657 -71.615,120.85Zm-111.897,279.134c52.083,0 89.111,-13.428 107.422,-36.621c18.31,-23.193 25.227,-47.607 25.227,-80.16c0,-83.414 -48.014,-124.918 -144.043,-124.918c-18.31,-0 -35.807,1.221 -52.49,3.255l0,234.375c26.449,2.848 48.015,4.069 63.884,4.069Zm87.483,-386.556c0,-65.104 -33.772,-95.215 -113.118,-95.215c-6.511,0 -19.124,0.407 -38.249,1.628l0,189.209l15.056,-0c72.021,-1.221 107.828,-16.276 123.291,-41.911c10.986,-17.904 13.02,-32.552 13.02,-53.711Zm281.641,-135.905l0,-6.917l144.45,-0l-0,6.917c-12.614,11.8 -19.124,26.856 -19.124,44.759l-0,534.261c-0,53.711 -21.973,102.132 -56.56,135.091c-34.586,32.553 -80.973,54.932 -132.649,62.663l-0,-6.917c32.145,-22.38 53.71,-49.642 65.104,-81.787c11.393,-32.552 17.09,-78.939 17.09,-139.16l-0,-504.151c-0,-17.496 -6.104,-32.552 -18.311,-44.759Zm693.424,456.543l5.697,3.255l-38.249,121.664c-13.427,-3.255 -24.414,-4.883 -32.552,-4.883l-338.541,-0l-0,-6.51c13.02,-12.208 19.531,-27.263 19.531,-45.167l-0,-480.143c-0,-17.496 -6.511,-32.552 -19.531,-44.759l-0,-6.917l295.003,-0c22.379,-0 37.435,-2.442 45.98,-7.324l3.255,-0l-0,121.663l-3.255,0c-8.138,-20.345 -17.904,-34.587 -29.704,-42.318c-11.8,-7.731 -29.704,-11.8 -53.711,-11.8l-131.429,0l-0,162.354l133.057,-0c12.614,-0 22.379,-3.662 29.297,-10.58l3.255,0l-0,87.484l-3.255,0c-15.87,-10.986 -32.553,-16.683 -50.049,-16.683l-112.305,0l-0,237.223l164.795,0c54.118,0 87.077,-21.158 112.711,-56.559Zm606.348,-8.138l6.511,1.628l-45.98,109.049c-0.407,0.407 -3.662,1.628 -9.766,3.662c-6.103,2.035 -10.986,4.069 -15.055,5.29c-8.545,2.848 -26.449,8.545 -41.504,11.8c-22.787,4.883 -56.152,10.173 -89.518,10.173c-92.367,-0 -173.34,-28.89 -230.713,-79.346c-57.373,-50.456 -92.367,-128.581 -92.367,-220.947c0,-99.284 38.249,-189.209 113.119,-247.803c48.828,-38.656 120.036,-61.849 201.823,-61.849c28.483,0 57.78,2.441 87.483,7.731c29.704,5.29 53.304,10.58 70.801,16.276l10.986,98.47c-30.11,-19.938 -57.779,-34.586 -82.6,-43.538c-24.821,-8.952 -52.898,-13.428 -83.415,-13.428c-128.581,0 -199.789,73.649 -199.789,220.134c0,85.042 24.008,152.994 62.663,193.278c38.656,40.283 88.298,61.035 144.043,61.035c38.249,-0 74.87,-6.918 109.863,-21.159c34.994,-14.242 62.663,-30.925 83.415,-50.456Zm566.065,-464.274l4.476,1.628l-25.228,93.994l-3.256,-0c-11.393,-15.462 -34.586,-23.194 -69.173,-23.194l-89.111,0l-0,468.343c-0,0 7.324,34.18 22.379,45.167l0,6.51l-151.774,-0l0,-6.51c15.056,-11.394 22.787,-26.449 22.787,-45.167l-0,-468.343l-90.739,0c-36.214,0 -68.766,18.311 -91.146,45.98l-7.324,-4.476l38.249,-112.304l1.627,-0c10.173,4.882 21.159,7.324 33.366,7.324l371.501,-0c9.765,-0 20.752,-2.848 33.366,-8.952Zm425.683,15.869l12.614,91.553c-40.69,-31.331 -90.739,-47.608 -134.277,-47.608c-29.297,0 -52.084,6.918 -67.953,20.752c-16.276,13.835 -24.414,30.925 -24.414,50.863c2.035,27.669 12.207,44.352 39.877,62.663c9.358,6.51 18.31,12.207 26.855,16.683c8.138,4.476 19.531,10.579 33.773,17.903c5.29,2.849 8.952,4.883 11.8,6.104c18.717,9.766 34.993,18.717 48.421,26.448c13.428,8.139 27.263,18.311 41.911,30.111c14.648,11.8 26.449,24.007 35.807,35.807c17.904,24.415 31.332,58.594 31.332,96.029c-0,48.828 -18.718,93.994 -51.27,127.767c-32.959,33.773 -85.042,54.932 -145.264,54.932c-27.669,-0 -57.373,-4.069 -89.111,-12.207c-32.145,-8.545 -59.814,-18.718 -83.415,-30.518l-24.821,-119.222l5.697,0c19.124,26.042 44.759,48.014 77.718,65.918c32.552,17.904 65.104,26.855 98.063,26.855c31.739,0 56.56,-8.544 74.87,-26.041c17.904,-17.09 26.856,-39.063 26.856,-65.511c-0,-18.311 -6.511,-36.621 -13.428,-49.642c-6.917,-13.021 -25.228,-29.297 -35.401,-37.842c-5.289,-4.476 -13.02,-9.766 -23.193,-16.276c-10.579,-6.104 -18.31,-10.986 -23.6,-13.835c-5.29,-2.848 -13.835,-7.324 -25.635,-13.427c-2.848,-1.221 -4.883,-2.442 -6.103,-3.256c-13.021,-6.917 -23.194,-12.207 -30.111,-15.869c-6.917,-3.662 -16.276,-9.358 -27.263,-16.276c-10.986,-6.917 -19.531,-13.021 -25.634,-18.31c-6.104,-5.29 -13.021,-11.8 -20.752,-20.345c-21.566,-23.194 -29.704,-49.235 -31.332,-87.484c0,-48.421 17.497,-86.67 52.898,-114.746c34.993,-28.076 80.159,-41.911 135.498,-41.911c21.565,0 45.572,2.035 71.207,6.51c25.635,4.476 45.166,8.952 57.78,13.428Z" fill="black"/>
</svg>
